<svg width="475" height="266" viewBox="0 0 475 266" fill="none" xmlns="http://www.w3.org/2000/svg">
<path d="M242.918 141.155C235.26 143.444 227.093 143.386 219.469 140.989L115.584 108.333L100.288 200.952C97.8053 215.987 106.989 230.495 121.64 234.684L223.039 263.676C228.355 265.196 233.987 265.217 239.314 263.738L343.578 234.783C358.705 230.582 368.035 215.427 364.974 200.028L347.085 110.026L242.918 141.155Z" fill="#343434"/>
<path d="M242.819 3.44977C235.223 1.20066 227.13 1.25756 219.567 3.61325L9.1539 69.1489C6.34725 70.0231 6.34204 73.9936 9.14638 74.8751L115.584 108.333L219.469 140.989C227.093 143.386 235.26 143.444 242.918 141.155L347.085 110.026L464.665 74.8876C467.523 74.0334 467.518 69.9837 464.657 69.1367L242.819 3.44977Z" fill="#4C4C53"/>
<path fill-rule="evenodd" clip-rule="evenodd" d="M396.407 216.566V95.0561L417.832 89.2085V216.566H396.407Z" fill="#FFCC00"/>
<path d="M396.407 95.0561L417.832 89.2085L254.469 67.0885L233.044 73.7915L396.407 95.0561Z" fill="#FFCC00"/>
<circle cx="407.239" cy="215.389" r="17.6549" fill="#FFCC00"/>
</svg>
